#N canvas 298 35 1161 870 12;
#X obj 741 615 tabread~ rainonme-L;
#X obj 919 616 tabread~ rainonme-R;
#X obj 739 403 phasor~;
#X obj 736 701 *~;
#X obj 828 699 *~;
#X obj 737 308 receive~ frequency;
#X obj 740 567 +~;
#X obj 735 505 *~;
#X obj 767 435 send~ masterPhasor;
#X obj 768 459 receive~ grainLength;
#X obj 768 496 *~;
#X obj 923 460 receive~ fullSampleSamples;
#X obj 804 553 *~;
#X obj 827 524 receive~ fullSampleSamples;
#X obj 799 497 receive~ startingPosition;
#X obj 738 370 *~;
#X obj 849 378 Snapshot~ 1;
#X floatatom 838 405 5 0 0 0 - - -, f 5;
#X obj 738 744 outlet~;
#X obj 829 747 outlet~;
#X obj 154 140 inlet;
#X obj 153 444 sel 0;
#X obj 150 577 vline~;
#X obj 175 629 send~ envelope;
#X obj 85 662 receive~ amplitude;
#X obj 97 706 *~;
#X obj 232 367 receive~ attack;
#X obj 231 404 Snapshot~ 1;
#X obj 230 449 f;
#X msg 231 539 1 \$1;
#X obj 271 449 delay;
#X obj 356 370 receive~ decay;
#X obj 358 402 Snapshot~ 1;
#X obj 470 368 receive~ sustain;
#X obj 469 399 Snapshot~ 1;
#X obj 352 441 pack 0 0;
#X obj 333 539 l;
#X obj 304 531 bng 15 250 50 0 empty empty empty 17 7 0 10 -262144
-1 -1;
#X msg 153 539 0 \$1;
#X obj 605 370 receive~ release;
#X obj 603 405 Snapshot~ 1;
#X obj 156 497 f;
#X obj 185 471 bng 15 250 50 0 empty empty empty 17 7 0 10 -262144
-1 -1;
#X obj 155 472 bng 15 250 50 0 empty empty empty 17 7 0 10 -262144
-1 -1;
#X obj 757 650 receive~ enveloped-amplitude-\$0;
#X obj 90 752 send~ enveloped-amplitude-\$0;
#X text 467 317 frequency-offset;
#X floatatom 150 409 5 0 0 0 - - -, f 5;
#X text 70 408 keyup/down;
#X obj 419 244 f \$1;
#X obj 421 281 coll;
#C restore;
#X floatatom 423 320 5 0 0 0 - - -, f 5;
#X msg 516 238 read five-limit;
#X obj 163 177 t f b;
#X obj 291 281 print instance;
#X obj 515 201 r init;
#X connect 0 0 3 0;
#X connect 1 0 4 0;
#X connect 2 0 7 0;
#X connect 2 0 8 0;
#X connect 3 0 18 0;
#X connect 4 0 19 0;
#X connect 5 0 15 0;
#X connect 5 0 16 0;
#X connect 6 0 0 0;
#X connect 6 0 1 0;
#X connect 7 0 6 0;
#X connect 9 0 10 0;
#X connect 10 0 7 1;
#X connect 11 0 10 1;
#X connect 12 0 6 1;
#X connect 13 0 12 1;
#X connect 14 0 12 0;
#X connect 15 0 2 0;
#X connect 16 0 17 0;
#X connect 20 0 53 0;
#X connect 21 0 43 0;
#X connect 21 1 42 0;
#X connect 22 0 23 0;
#X connect 22 0 25 1;
#X connect 24 0 25 0;
#X connect 25 0 45 0;
#X connect 26 0 27 0;
#X connect 27 0 28 1;
#X connect 27 0 30 1;
#X connect 28 0 29 0;
#X connect 29 0 22 0;
#X connect 30 0 37 0;
#X connect 31 0 32 0;
#X connect 32 0 35 1;
#X connect 33 0 34 0;
#X connect 34 0 35 0;
#X connect 35 0 36 1;
#X connect 36 0 22 0;
#X connect 37 0 36 0;
#X connect 38 0 22 0;
#X connect 39 0 40 0;
#X connect 40 0 41 1;
#X connect 41 0 38 0;
#X connect 42 0 28 0;
#X connect 42 0 30 0;
#X connect 43 0 41 0;
#X connect 44 0 3 1;
#X connect 44 0 4 1;
#X connect 47 0 21 0;
#X connect 49 0 50 0;
#X connect 49 0 54 0;
#X connect 50 0 51 0;
#X connect 51 0 15 1;
#X connect 52 0 50 0;
#X connect 53 0 47 0;
#X connect 53 1 49 0;
#X connect 55 0 52 0;
