#N canvas 124 159 1063 784 12;
#N canvas 0 22 450 300 (subpatch) 0;
#X array rainonme-L 4e+06 float 2 black black;
#X coords 0 1 4e+06 -1 200 140 1;
#X restore 586 31 graph;
#N canvas 0 22 450 300 (subpatch) 0;
#X array rainonme-R 4e+06 float 2 black black;
#X coords 0 1 4e+06 -1 200 140 1;
#X restore 801 27 graph;
#X obj 192 605 ezdac~;
#N canvas 442 87 740 659 controls 0;
#N canvas 0 22 450 300 knob1 0;
#X obj 31 350 vline~;
#X msg 33 301 \$1 100;
#X obj 26 188 r knob1;
#X floatatom 30 221 5 0 0 0 - - -, f 5;
#X obj 33 259 / 127;
#X obj 31 387 send~ amplitude;
#X obj 31 24 vsl 15 128 0 127 0 0 empty empty empty 0 -9 0 10 -262144
-1 -1 0 1;
#X connect 0 0 5 0;
#X connect 1 0 0 0;
#X connect 2 0 3 0;
#X connect 3 0 4 0;
#X connect 4 0 1 0;
#X connect 6 0 3 0;
#X restore 25 26 pd knob1;
#N canvas 615 23 450 323 knob2 0;
#X obj 23 -277 vline~;
#X floatatom 22 -406 5 0 0 0 - - -, f 5;
#X obj 24 -30 send~ speed;
#X obj 18 -439 r knob2;
#X obj 25 -368 / 64;
#X msg 25 -326 \$1 100;
#X obj 24 -601 vsl 15 128 0 127 0 0 empty empty empty 0 -9 0 10 -262144
-1 -1 0 1;
#X obj 26 -138 samphold~;
#X obj 40 -167 receive~ masterPhasor;
#X obj 23 -77 *~;
#X obj 55 -54 *~;
#X obj 36 -107 receive~ syncSampleControlMix;
#X obj 75 -79 receive~ drySampleControlMix;
#X connect 0 0 7 0;
#X connect 0 0 10 0;
#X connect 1 0 4 0;
#X connect 3 0 1 0;
#X connect 4 0 5 0;
#X connect 5 0 0 0;
#X connect 6 0 1 0;
#X connect 7 0 9 0;
#X connect 8 0 7 1;
#X connect 9 0 2 0;
#X connect 10 0 2 0;
#X connect 11 0 9 1;
#X connect 12 0 10 1;
#X restore 92 25 pd knob2;
#N canvas 0 22 450 300 knob3 0;
#X floatatom 58 -402 5 0 0 0 - - -, f 5;
#X obj 54 -435 r knob3;
#X obj 60 -339 / 127;
#X obj 62 -14 send~ startingPosition;
#X msg 62 -306 \$1 1;
#X obj 59 -604 vsl 15 128 0 127 0 0 empty empty empty 0 -9 0 10 -262144
-1 -1 0 1;
#X obj 62 -275 vline~;
#X obj 65 -136 samphold~;
#X obj 79 -165 receive~ masterPhasor;
#X obj 62 -75 *~;
#X obj 94 -52 *~;
#X obj 75 -105 receive~ syncSampleControlMix;
#X obj 114 -77 receive~ drySampleControlMix;
#X text 63 22 0 = start \, 1 = end;
#X connect 0 0 2 0;
#X connect 1 0 0 0;
#X connect 2 0 4 0;
#X connect 4 0 6 0;
#X connect 5 0 0 0;
#X connect 6 0 7 0;
#X connect 6 0 10 0;
#X connect 7 0 9 0;
#X connect 8 0 7 1;
#X connect 9 0 3 0;
#X connect 10 0 3 0;
#X connect 11 0 9 1;
#X connect 12 0 10 1;
#X restore 158 24 pd knob3;
#N canvas 1230 104 450 784 knob4 0;
#X floatatom 35 -318 5 0 0 0 - - -, f 5;
#X obj 37 -258 / 127;
#X obj 31 -351 r knob4;
#X obj 36 34 send~ grainLength;
#X text 37 64 proportion of total length;
#X obj 35 -288 + 1;
#X obj 38 -218 *;
#X msg 40 -185 \$1 10;
#X obj 40 -525 vsl 15 128 0 127 0 0 empty empty empty 0 -9 0 10 -262144
-1 -1 0 1;
#X obj 40 -156 vline~;
#X obj 108 -83 samphold~;
#X obj 122 -112 receive~ masterPhasor;
#X obj 105 -22 *~;
#X obj 137 1 *~;
#X obj 118 -52 receive~ syncSampleControlMix;
#X obj 157 -24 receive~ drySampleControlMix;
#X obj 125 -318 r syncSampleChanges;
#X obj 127 -273 sel 0;
#X obj 123 -238 vline~;
#X connect 0 0 5 0;
#X connect 1 0 6 1;
#X connect 1 0 6 0;
#X connect 2 0 0 0;
#X connect 5 0 1 0;
#X connect 6 0 7 0;
#X connect 7 0 9 0;
#X connect 8 0 0 0;
#X connect 9 0 10 0;
#X connect 9 0 13 0;
#X connect 10 0 12 0;
#X connect 11 0 10 1;
#X connect 12 0 3 0;
#X connect 13 0 3 0;
#X connect 14 0 12 1;
#X connect 15 0 13 1;
#X connect 16 0 17 0;
#X restore 224 23 pd knob4;
#N canvas 1163 209 450 323 bX1 0;
#X obj 27 52 r bX1;
#X obj 27 83 tgl 15 0 empty empty empty 17 7 0 10 -262144 -1 -1 0 1
;
#X obj 27 110 s syncSampleChanges;
#X obj 187 108 noteout;
#X msg 181 65 64 \$1;
#X connect 0 0 1 0;
#X connect 1 0 2 0;
#X connect 1 0 4 0;
#X connect 4 0 3 0;
#X restore 408 22 pd bX1;
#N canvas 28 23 1590 920 buttonArray 0;
#X obj 10 14 r b1-1;
#X obj 8 57 tgl 15 0 empty empty empty 17 7 0 10 -262144 -1 -1 0 1
;
#X obj 33 131 noteout;
#X msg 27 89 32 \$1;
#X obj 8 164 s sample1Active;
#X obj 124 58 tgl 15 0 empty empty empty 17 7 0 10 -262144 -1 -1 0
1;
#X obj 149 132 noteout;
#X obj 239 57 tgl 15 0 empty empty empty 17 7 0 10 -262144 -1 -1 0
1;
#X obj 264 131 noteout;
#X obj 355 58 tgl 15 0 empty empty empty 17 7 0 10 -262144 -1 -1 0
1;
#X obj 380 132 noteout;
#X obj 471 59 tgl 15 0 empty empty empty 17 7 0 10 -262144 -1 -1 0
1;
#X obj 496 133 noteout;
#X obj 587 60 tgl 15 0 empty empty empty 17 7 0 10 -262144 -1 -1 0
1;
#X obj 612 134 noteout;
#X obj 702 59 tgl 15 0 empty empty empty 17 7 0 10 -262144 -1 -1 0
1;
#X obj 727 133 noteout;
#X obj 818 60 tgl 15 0 empty empty empty 17 7 0 10 -262144 -1 -1 0
1;
#X obj 843 134 noteout;
#X obj 126 15 r b1-2;
#X obj 241 14 r b1-3;
#X obj 357 15 r b1-4;
#X obj 473 16 r b1-5;
#X obj 589 17 r b1-6;
#X obj 704 16 r b1-7;
#X obj 820 17 r b1-8;
#X msg 143 90 33 \$1;
#X msg 258 89 34 \$1;
#X msg 374 90 35 \$1;
#X msg 490 91 36 \$1;
#X msg 606 92 37 \$1;
#X msg 721 91 38 \$1;
#X msg 837 92 39 \$1;
#X obj 124 165 s sample2Active;
#X obj 239 164 s sample3Active;
#X obj 355 165 s sample4Active;
#X obj 471 166 s sample5Active;
#X obj 587 167 s sample6Active;
#X obj 702 166 s sample7Active;
#X obj 818 167 s sample8Active;
#X obj 11 237 tgl 15 0 empty empty empty 17 7 0 10 -262144 -1 -1 0
1;
#X obj 36 311 noteout;
#X obj 11 344 s sample1Active;
#X obj 127 238 tgl 15 0 empty empty empty 17 7 0 10 -262144 -1 -1 0
1;
#X obj 152 312 noteout;
#X obj 242 237 tgl 15 0 empty empty empty 17 7 0 10 -262144 -1 -1 0
1;
#X obj 267 311 noteout;
#X obj 358 238 tgl 15 0 empty empty empty 17 7 0 10 -262144 -1 -1 0
1;
#X obj 383 312 noteout;
#X obj 474 239 tgl 15 0 empty empty empty 17 7 0 10 -262144 -1 -1 0
1;
#X obj 499 313 noteout;
#X obj 590 240 tgl 15 0 empty empty empty 17 7 0 10 -262144 -1 -1 0
1;
#X obj 615 314 noteout;
#X obj 705 239 tgl 15 0 empty empty empty 17 7 0 10 -262144 -1 -1 0
1;
#X obj 730 313 noteout;
#X obj 821 240 tgl 15 0 empty empty empty 17 7 0 10 -262144 -1 -1 0
1;
#X obj 846 314 noteout;
#X obj 127 345 s sample2Active;
#X obj 242 344 s sample3Active;
#X obj 358 345 s sample4Active;
#X obj 474 346 s sample5Active;
#X obj 590 347 s sample6Active;
#X obj 705 346 s sample7Active;
#X obj 821 347 s sample8Active;
#X obj 12 419 tgl 15 0 empty empty empty 17 7 0 10 -262144 -1 -1 0
1;
#X obj 37 493 noteout;
#X obj 12 526 s sample1Active;
#X obj 128 420 tgl 15 0 empty empty empty 17 7 0 10 -262144 -1 -1 0
1;
#X obj 153 494 noteout;
#X obj 243 419 tgl 15 0 empty empty empty 17 7 0 10 -262144 -1 -1 0
1;
#X obj 268 493 noteout;
#X obj 359 420 tgl 15 0 empty empty empty 17 7 0 10 -262144 -1 -1 0
1;
#X obj 384 494 noteout;
#X obj 475 421 tgl 15 0 empty empty empty 17 7 0 10 -262144 -1 -1 0
1;
#X obj 500 495 noteout;
#X obj 591 422 tgl 15 0 empty empty empty 17 7 0 10 -262144 -1 -1 0
1;
#X obj 616 496 noteout;
#X obj 706 421 tgl 15 0 empty empty empty 17 7 0 10 -262144 -1 -1 0
1;
#X obj 731 495 noteout;
#X obj 822 422 tgl 15 0 empty empty empty 17 7 0 10 -262144 -1 -1 0
1;
#X obj 847 496 noteout;
#X obj 128 527 s sample2Active;
#X obj 243 526 s sample3Active;
#X obj 359 527 s sample4Active;
#X obj 475 528 s sample5Active;
#X obj 591 529 s sample6Active;
#X obj 706 528 s sample7Active;
#X obj 822 529 s sample8Active;
#X obj 12 599 tgl 15 0 empty empty empty 17 7 0 10 -262144 -1 -1 0
1;
#X obj 37 673 noteout;
#X obj 12 706 s sample1Active;
#X obj 128 600 tgl 15 0 empty empty empty 17 7 0 10 -262144 -1 -1 0
1;
#X obj 153 674 noteout;
#X obj 243 599 tgl 15 0 empty empty empty 17 7 0 10 -262144 -1 -1 0
1;
#X obj 268 673 noteout;
#X obj 359 600 tgl 15 0 empty empty empty 17 7 0 10 -262144 -1 -1 0
1;
#X obj 384 674 noteout;
#X obj 475 601 tgl 15 0 empty empty empty 17 7 0 10 -262144 -1 -1 0
1;
#X obj 500 675 noteout;
#X obj 591 602 tgl 15 0 empty empty empty 17 7 0 10 -262144 -1 -1 0
1;
#X obj 616 676 noteout;
#X obj 706 601 tgl 15 0 empty empty empty 17 7 0 10 -262144 -1 -1 0
1;
#X obj 731 675 noteout;
#X obj 822 602 tgl 15 0 empty empty empty 17 7 0 10 -262144 -1 -1 0
1;
#X obj 847 676 noteout;
#X obj 128 707 s sample2Active;
#X obj 243 706 s sample3Active;
#X obj 359 707 s sample4Active;
#X obj 475 708 s sample5Active;
#X obj 591 709 s sample6Active;
#X obj 706 708 s sample7Active;
#X obj 822 709 s sample8Active;
#X obj 14 779 tgl 15 0 empty empty empty 17 7 0 10 -262144 -1 -1 0
1;
#X obj 39 853 noteout;
#X obj 14 886 s sample1Active;
#X obj 130 780 tgl 15 0 empty empty empty 17 7 0 10 -262144 -1 -1 0
1;
#X obj 155 854 noteout;
#X obj 245 779 tgl 15 0 empty empty empty 17 7 0 10 -262144 -1 -1 0
1;
#X obj 270 853 noteout;
#X obj 361 780 tgl 15 0 empty empty empty 17 7 0 10 -262144 -1 -1 0
1;
#X obj 386 854 noteout;
#X obj 477 781 tgl 15 0 empty empty empty 17 7 0 10 -262144 -1 -1 0
1;
#X obj 502 855 noteout;
#X obj 593 782 tgl 15 0 empty empty empty 17 7 0 10 -262144 -1 -1 0
1;
#X obj 618 856 noteout;
#X obj 708 781 tgl 15 0 empty empty empty 17 7 0 10 -262144 -1 -1 0
1;
#X obj 733 855 noteout;
#X obj 824 782 tgl 15 0 empty empty empty 17 7 0 10 -262144 -1 -1 0
1;
#X obj 849 856 noteout;
#X obj 130 887 s sample2Active;
#X obj 245 886 s sample3Active;
#X obj 361 887 s sample4Active;
#X obj 477 888 s sample5Active;
#X obj 593 889 s sample6Active;
#X obj 708 888 s sample7Active;
#X obj 824 889 s sample8Active;
#X obj 13 194 r b2-1;
#X obj 129 195 r b2-2;
#X obj 244 194 r b2-3;
#X obj 360 195 r b2-4;
#X obj 476 196 r b2-5;
#X obj 592 197 r b2-6;
#X obj 707 196 r b2-7;
#X obj 823 197 r b2-8;
#X obj 14 376 r b3-1;
#X obj 130 377 r b3-2;
#X obj 245 376 r b3-3;
#X obj 361 377 r b3-4;
#X obj 477 378 r b3-5;
#X obj 593 379 r b3-6;
#X obj 708 378 r b3-7;
#X obj 824 379 r b3-8;
#X obj 14 556 r b4-1;
#X obj 130 557 r b4-2;
#X obj 245 556 r b4-3;
#X obj 361 557 r b4-4;
#X obj 477 558 r b4-5;
#X obj 593 559 r b4-6;
#X obj 708 558 r b4-7;
#X obj 824 559 r b4-8;
#X obj 16 736 r b5-1;
#X obj 132 737 r b5-2;
#X obj 247 736 r b5-3;
#X obj 363 737 r b5-4;
#X obj 479 738 r b5-5;
#X obj 595 739 r b5-6;
#X obj 710 738 r b5-7;
#X obj 826 739 r b5-8;
#X msg 31 451 16 \$1;
#X msg 147 452 17 \$1;
#X msg 262 451 18 \$1;
#X msg 378 452 19 \$1;
#X msg 494 453 20 \$1;
#X msg 610 454 21 \$1;
#X msg 725 453 22 \$1;
#X msg 841 454 23 \$1;
#X msg 31 631 8 \$1;
#X msg 147 632 9 \$1;
#X msg 262 631 10 \$1;
#X msg 378 632 11 \$1;
#X msg 494 633 12 \$1;
#X msg 610 634 13 \$1;
#X msg 725 633 14 \$1;
#X msg 841 634 15 \$1;
#X msg 33 811 0 \$1;
#X msg 149 812 1 \$1;
#X msg 264 811 2 \$1;
#X msg 380 812 3 \$1;
#X msg 496 813 4 \$1;
#X msg 612 814 5 \$1;
#X msg 727 813 6 \$1;
#X msg 843 814 7 \$1;
#X msg 30 269 24 \$1;
#X msg 146 270 25 \$1;
#X msg 261 269 26 \$1;
#X msg 377 270 27 \$1;
#X msg 493 271 28 \$1;
#X msg 609 272 29 \$1;
#X msg 724 271 30 \$1;
#X msg 840 272 31 \$1;
#X connect 0 0 1 0;
#X connect 1 0 3 0;
#X connect 1 0 4 0;
#X connect 3 0 2 0;
#X connect 5 0 26 0;
#X connect 5 0 33 0;
#X connect 7 0 27 0;
#X connect 7 0 34 0;
#X connect 9 0 28 0;
#X connect 9 0 35 0;
#X connect 11 0 29 0;
#X connect 11 0 36 0;
#X connect 13 0 30 0;
#X connect 13 0 37 0;
#X connect 15 0 31 0;
#X connect 15 0 38 0;
#X connect 17 0 32 0;
#X connect 17 0 39 0;
#X connect 19 0 5 0;
#X connect 20 0 7 0;
#X connect 21 0 9 0;
#X connect 22 0 11 0;
#X connect 23 0 13 0;
#X connect 24 0 15 0;
#X connect 25 0 17 0;
#X connect 26 0 6 0;
#X connect 27 0 8 0;
#X connect 28 0 10 0;
#X connect 29 0 12 0;
#X connect 30 0 14 0;
#X connect 31 0 16 0;
#X connect 32 0 18 0;
#X connect 40 0 192 0;
#X connect 40 0 42 0;
#X connect 43 0 193 0;
#X connect 43 0 57 0;
#X connect 45 0 194 0;
#X connect 45 0 58 0;
#X connect 47 0 195 0;
#X connect 47 0 59 0;
#X connect 49 0 196 0;
#X connect 49 0 60 0;
#X connect 51 0 197 0;
#X connect 51 0 61 0;
#X connect 53 0 198 0;
#X connect 53 0 62 0;
#X connect 55 0 199 0;
#X connect 55 0 63 0;
#X connect 64 0 168 0;
#X connect 64 0 66 0;
#X connect 67 0 169 0;
#X connect 67 0 81 0;
#X connect 69 0 170 0;
#X connect 69 0 82 0;
#X connect 71 0 171 0;
#X connect 71 0 83 0;
#X connect 73 0 172 0;
#X connect 73 0 84 0;
#X connect 75 0 173 0;
#X connect 75 0 85 0;
#X connect 77 0 174 0;
#X connect 77 0 86 0;
#X connect 79 0 175 0;
#X connect 79 0 87 0;
#X connect 88 0 176 0;
#X connect 88 0 90 0;
#X connect 91 0 177 0;
#X connect 91 0 105 0;
#X connect 93 0 178 0;
#X connect 93 0 106 0;
#X connect 95 0 179 0;
#X connect 95 0 107 0;
#X connect 97 0 180 0;
#X connect 97 0 108 0;
#X connect 99 0 181 0;
#X connect 99 0 109 0;
#X connect 101 0 182 0;
#X connect 101 0 110 0;
#X connect 103 0 183 0;
#X connect 103 0 111 0;
#X connect 112 0 184 0;
#X connect 112 0 114 0;
#X connect 115 0 185 0;
#X connect 115 0 129 0;
#X connect 117 0 186 0;
#X connect 117 0 130 0;
#X connect 119 0 187 0;
#X connect 119 0 131 0;
#X connect 121 0 188 0;
#X connect 121 0 132 0;
#X connect 123 0 189 0;
#X connect 123 0 133 0;
#X connect 125 0 190 0;
#X connect 125 0 134 0;
#X connect 127 0 191 0;
#X connect 127 0 135 0;
#X connect 136 0 40 0;
#X connect 137 0 43 0;
#X connect 138 0 45 0;
#X connect 139 0 47 0;
#X connect 140 0 49 0;
#X connect 141 0 51 0;
#X connect 142 0 53 0;
#X connect 143 0 55 0;
#X connect 144 0 64 0;
#X connect 145 0 67 0;
#X connect 146 0 69 0;
#X connect 147 0 71 0;
#X connect 148 0 73 0;
#X connect 149 0 75 0;
#X connect 150 0 77 0;
#X connect 151 0 79 0;
#X connect 152 0 88 0;
#X connect 153 0 91 0;
#X connect 154 0 93 0;
#X connect 155 0 95 0;
#X connect 156 0 97 0;
#X connect 157 0 99 0;
#X connect 158 0 101 0;
#X connect 159 0 103 0;
#X connect 160 0 112 0;
#X connect 161 0 115 0;
#X connect 162 0 117 0;
#X connect 163 0 119 0;
#X connect 164 0 121 0;
#X connect 165 0 123 0;
#X connect 166 0 125 0;
#X connect 167 0 127 0;
#X connect 168 0 65 0;
#X connect 169 0 68 0;
#X connect 170 0 70 0;
#X connect 171 0 72 0;
#X connect 172 0 74 0;
#X connect 173 0 76 0;
#X connect 174 0 78 0;
#X connect 175 0 80 0;
#X connect 176 0 89 0;
#X connect 177 0 92 0;
#X connect 178 0 94 0;
#X connect 179 0 96 0;
#X connect 180 0 98 0;
#X connect 181 0 100 0;
#X connect 182 0 102 0;
#X connect 183 0 104 0;
#X connect 184 0 113 0;
#X connect 185 0 116 0;
#X connect 186 0 118 0;
#X connect 187 0 120 0;
#X connect 188 0 122 0;
#X connect 189 0 124 0;
#X connect 190 0 126 0;
#X connect 191 0 128 0;
#X connect 192 0 41 0;
#X connect 193 0 44 0;
#X connect 194 0 46 0;
#X connect 195 0 48 0;
#X connect 196 0 50 0;
#X connect 197 0 52 0;
#X connect 198 0 54 0;
#X connect 199 0 56 0;
#X restore 293 22 pd buttonArray;
#N canvas 615 23 450 544 knob5 0;
#X obj 31 350 vline~;
#X floatatom 30 221 5 0 0 0 - - -, f 5;
#X obj 33 259 / 127;
#X obj 31 24 vsl 15 128 0 127 0 0 empty empty empty 0 -9 0 10 -262144
-1 -1 0 1;
#X obj 26 188 r knob5;
#X obj 30 387 send~ attack;
#X obj 31 290 * 2000;
#X msg 30 319 \$1 1;
#X connect 0 0 5 0;
#X connect 1 0 2 0;
#X connect 2 0 6 0;
#X connect 3 0 1 0;
#X connect 4 0 1 0;
#X connect 6 0 7 0;
#X connect 7 0 0 0;
#X restore 26 72 pd knob5;
#N canvas 0 22 450 300 knob6 0;
#X obj 31 350 vline~;
#X floatatom 30 221 5 0 0 0 - - -, f 5;
#X obj 33 259 / 127;
#X obj 31 24 vsl 15 128 0 127 0 0 empty empty empty 0 -9 0 10 -262144
-1 -1 0 1;
#X obj 26 188 r knob6;
#X obj 30 387 send~ decay;
#X obj 32 289 * 2000;
#X msg 30 316 \$1 1;
#X connect 0 0 5 0;
#X connect 1 0 2 0;
#X connect 2 0 6 0;
#X connect 3 0 1 0;
#X connect 4 0 1 0;
#X connect 6 0 7 0;
#X connect 7 0 0 0;
#X restore 96 72 pd knob6;
#N canvas 0 22 450 300 knob7 0;
#X obj 31 350 vline~;
#X floatatom 30 221 5 0 0 0 - - -, f 5;
#X obj 33 259 / 127;
#X obj 31 24 vsl 15 128 0 127 0 0 empty empty empty 0 -9 0 10 -262144
-1 -1 0 1;
#X obj 26 188 r knob7;
#X obj 30 387 send~ sustain;
#X msg 33 301 \$1 1;
#X connect 0 0 5 0;
#X connect 1 0 2 0;
#X connect 2 0 6 0;
#X connect 3 0 1 0;
#X connect 4 0 1 0;
#X connect 6 0 0 0;
#X restore 161 71 pd knob7;
#N canvas 0 22 450 300 knob8 0;
#X obj 31 350 vline~;
#X floatatom 30 221 5 0 0 0 - - -, f 5;
#X obj 33 259 / 127;
#X obj 31 24 vsl 15 128 0 127 0 0 empty empty empty 0 -9 0 10 -262144
-1 -1 0 1;
#X obj 26 188 r knob8;
#X msg 29 317 \$1 1;
#X obj 30 387 send~ release;
#X obj 31 286 * 10000;
#X connect 0 0 6 0;
#X connect 1 0 2 0;
#X connect 2 0 7 0;
#X connect 3 0 1 0;
#X connect 4 0 1 0;
#X connect 5 0 0 0;
#X connect 7 0 5 0;
#X restore 231 71 pd knob8;
#X restore 16 74 pd controls;
#X obj 540 294 Scope~ 477 253 256 3 128 -1 1 0 0 0 0 102 255 51 135
135 135 0;
#N canvas 1230 79 450 323 midi 0;
#N canvas 0 22 1680 1050 ctl 0;
#X obj 29 -182 ctlin;
#X obj 26 -146 swap;
#X obj 25 -110 pack 0 0;
#X obj 25 -14 s knob1;
#X obj 46 25 s knob2;
#X obj 69 65 s knob3;
#X obj 111 100 s knob4;
#X floatatom 135 -112 5 0 0 0 - - -, f 5;
#X floatatom 181 -109 5 0 0 0 - - -, f 5;
#X obj 25 -55 route 48 49 50 51 52 53 54 55;
#X obj 120 -16 s knob5;
#X obj 141 23 s knob6;
#X obj 164 63 s knob7;
#X obj 206 98 s knob8;
#X connect 0 0 1 0;
#X connect 0 1 1 1;
#X connect 1 0 2 0;
#X connect 1 0 7 0;
#X connect 1 1 2 1;
#X connect 1 1 8 0;
#X connect 2 0 9 0;
#X connect 9 0 3 0;
#X connect 9 1 4 0;
#X connect 9 2 5 0;
#X connect 9 3 6 0;
#X connect 9 4 10 0;
#X connect 9 5 11 0;
#X connect 9 6 12 0;
#X connect 9 7 13 0;
#X restore 17 41 pd ctl;
#N canvas 368 357 450 346 note 0;
#X obj 28 -156 notein;
#X obj 29 -118 stripnote;
#X floatatom 25 -83 5 0 0 0 - - -, f 5;
#X floatatom 63 -54 5 0 0 0 - - -, f 5;
#X obj 59 123 route 64;
#X obj 32 182 s bX1;
#X obj 58 53 notein;
#X obj 59 91 stripnote;
#N canvas 615 23 450 323 buttonArray 0;
#X obj 26 74 route 32 33 34 35 36 37 38 39;
#X obj 26 115 s b1-1;
#X obj 47 154 s b1-2;
#X obj 70 194 s b1-3;
#X obj 98 229 s b1-4;
#X obj 127 113 s b1-5;
#X obj 149 152 s b1-6;
#X obj 171 192 s b1-7;
#X obj 199 227 s b1-8;
#X obj 244 75 route 24 25 26 27 28 29 30 31;
#X obj 244 116 s b2-1;
#X obj 265 155 s b2-2;
#X obj 288 195 s b2-3;
#X obj 316 230 s b2-4;
#X obj 345 114 s b2-5;
#X obj 367 153 s b2-6;
#X obj 389 193 s b2-7;
#X obj 417 228 s b2-8;
#X obj 242 4 notein;
#X obj 243 42 stripnote;
#X obj 24 7 notein;
#X obj 25 45 stripnote;
#X obj 460 3 notein;
#X obj 461 41 stripnote;
#X obj 462 74 route 16 17 18 19 20 21 22 23;
#X obj 462 115 s b3-1;
#X obj 483 154 s b3-2;
#X obj 506 194 s b3-3;
#X obj 534 228 s b3-4;
#X obj 563 113 s b3-5;
#X obj 585 152 s b3-6;
#X obj 607 192 s b3-7;
#X obj 634 227 s b3-8;
#X obj 673 2 notein;
#X obj 674 40 stripnote;
#X obj 675 73 route 8 9 10 11 12 13 14 15;
#X obj 675 114 s b4-1;
#X obj 696 153 s b4-2;
#X obj 719 193 s b4-3;
#X obj 747 227 s b4-4;
#X obj 776 112 s b4-5;
#X obj 798 151 s b4-6;
#X obj 820 191 s b4-7;
#X obj 847 226 s b4-8;
#X obj 873 2 notein;
#X obj 874 40 stripnote;
#X obj 875 73 route 0 1 2 3 4 5 6 7;
#X obj 875 114 s b5-1;
#X obj 896 153 s b5-2;
#X obj 919 193 s b5-3;
#X obj 947 227 s b5-4;
#X obj 976 112 s b5-5;
#X obj 998 151 s b5-6;
#X obj 1020 191 s b5-7;
#X obj 1047 226 s b5-8;
#X connect 0 0 1 0;
#X connect 0 1 2 0;
#X connect 0 2 3 0;
#X connect 0 3 4 0;
#X connect 0 4 5 0;
#X connect 0 5 6 0;
#X connect 0 6 7 0;
#X connect 0 7 8 0;
#X connect 9 0 10 0;
#X connect 9 1 11 0;
#X connect 9 2 12 0;
#X connect 9 3 13 0;
#X connect 9 4 14 0;
#X connect 9 5 15 0;
#X connect 9 6 16 0;
#X connect 9 7 17 0;
#X connect 18 0 19 0;
#X connect 18 1 19 1;
#X connect 19 0 9 0;
#X connect 20 0 21 0;
#X connect 20 1 21 1;
#X connect 21 0 0 0;
#X connect 22 0 23 0;
#X connect 22 1 23 1;
#X connect 23 0 24 0;
#X connect 24 0 25 0;
#X connect 24 1 26 0;
#X connect 24 2 27 0;
#X connect 24 3 28 0;
#X connect 24 4 29 0;
#X connect 24 5 30 0;
#X connect 24 6 31 0;
#X connect 24 7 32 0;
#X connect 33 0 34 0;
#X connect 33 1 34 1;
#X connect 34 0 35 0;
#X connect 35 0 36 0;
#X connect 35 1 37 0;
#X connect 35 2 38 0;
#X connect 35 3 39 0;
#X connect 35 4 40 0;
#X connect 35 5 41 0;
#X connect 35 6 42 0;
#X connect 35 7 43 0;
#X connect 44 0 45 0;
#X connect 44 1 45 1;
#X connect 45 0 46 0;
#X connect 46 0 47 0;
#X connect 46 1 48 0;
#X connect 46 2 49 0;
#X connect 46 3 50 0;
#X connect 46 4 51 0;
#X connect 46 5 52 0;
#X connect 46 6 53 0;
#X connect 46 7 54 0;
#X restore 123 -154 pd buttonArray;
#N canvas 794 257 580 458 keys 0;
#X obj 42 28 notein;
#X obj 45 248 route 48 49 50 51 52 53 54 55 56 57 58 59 60 61 62 63
64 65 66 67 68 69 70 71 72;
#X obj 43 69 pack 0 0;
#X obj 41 309 s key-0;
#X obj 56 336 s key-1;
#X obj 73 362 s key-2;
#X obj 88 389 s key-3;
#X obj 105 307 s key-4;
#X obj 120 334 s key-5;
#X obj 137 360 s key-6;
#X obj 152 387 s key-7;
#X obj 165 306 s key-8;
#X obj 180 333 s key-9;
#X obj 197 359 s key-10;
#X obj 212 386 s key-11;
#X obj 229 304 s key-12;
#X obj 244 331 s key-13;
#X obj 261 357 s key-14;
#X obj 276 384 s key-5;
#X obj 289 301 s key-16;
#X obj 304 328 s key-17;
#X obj 321 354 s key-18;
#X obj 336 381 s key-19;
#X obj 353 299 s key-20;
#X obj 368 326 s key-21;
#X obj 385 352 s key-22;
#X obj 400 379 s key-23;
#X obj 415 300 s key-24;
#X obj 151 68 moses 48;
#X obj 200 99 moses 73;
#X obj 198 158 pack 0 0;
#X obj 200 130 - 48;
#X msg 199 191 \; key \$1 \$2;
#X connect 0 0 2 0;
#X connect 0 0 28 0;
#X connect 0 1 2 1;
#X connect 0 1 30 1;
#X connect 1 0 3 0;
#X connect 1 1 4 0;
#X connect 1 2 5 0;
#X connect 1 3 6 0;
#X connect 1 4 7 0;
#X connect 1 5 8 0;
#X connect 1 6 9 0;
#X connect 1 7 10 0;
#X connect 1 8 11 0;
#X connect 1 9 12 0;
#X connect 1 10 13 0;
#X connect 1 11 14 0;
#X connect 1 12 15 0;
#X connect 1 13 16 0;
#X connect 1 14 17 0;
#X connect 1 15 18 0;
#X connect 1 16 19 0;
#X connect 1 17 20 0;
#X connect 1 18 21 0;
#X connect 1 19 22 0;
#X connect 1 20 23 0;
#X connect 1 21 24 0;
#X connect 1 22 25 0;
#X connect 1 23 26 0;
#X connect 1 24 27 0;
#X connect 2 0 1 0;
#X connect 28 1 29 0;
#X connect 29 0 31 0;
#X connect 30 0 32 0;
#X connect 31 0 30 0;
#X restore 137 -110 pd keys;
#X obj 19 91 == 1;
#X obj 34 150 gate;
#X connect 0 0 1 0;
#X connect 0 1 1 1;
#X connect 1 0 2 0;
#X connect 1 1 3 0;
#X connect 4 0 11 1;
#X connect 6 0 7 0;
#X connect 6 1 7 1;
#X connect 6 2 10 0;
#X connect 7 0 4 0;
#X connect 10 0 11 0;
#X connect 11 0 5 0;
#X restore 15 9 pd note;
#X restore 16 44 pd midi;
#N canvas 1200 131 450 579 calculateGrainFrequency 1;
#X obj 30 54 r fullSampleSamples;
#X obj 32 91 sig~;
#X obj 33 204 *~;
#X text 68 201 samples in current grain;
#X obj 33 281 /~;
#X obj 66 231 receive~ samplerate;
#X floatatom 59 347 5 0 0 0 - - -, f 5;
#X obj 57 313 Snapshot~ 100;
#X text 111 350 seconds in grain;
#X obj 36 391 expr~ 1/$v1;
#X floatatom 67 461 5 0 0 0 - - -, f 5;
#X obj 65 427 Snapshot~ 100;
#X obj 38 533 send~ frequency;
#X text 26 25 calculate grain frequency;
#X text 119 464 grain frequency;
#X obj 52 124 send~ fullSampleSamples;
#X obj 39 498 *~;
#X obj 64 159 receive~ grainLength;
#X obj 77 496 receive~ speed;
#X obj 257 181 Snapshot~ 1;
#X floatatom 255 217 5 0 0 0 - - -, f 5;
#X connect 0 0 1 0;
#X connect 1 0 2 0;
#X connect 1 0 15 0;
#X connect 2 0 4 0;
#X connect 4 0 7 0;
#X connect 4 0 9 0;
#X connect 5 0 4 1;
#X connect 7 0 6 0;
#X connect 9 0 11 0;
#X connect 9 0 16 0;
#X connect 11 0 10 0;
#X connect 16 0 12 0;
#X connect 17 0 2 1;
#X connect 17 0 19 0;
#X connect 18 0 16 1;
#X connect 19 0 20 0;
#X restore 16 102 pd calculateGrainFrequency;
#N canvas 615 23 450 300 init 1;
#X obj 24 175 soundfiler;
#X msg 24 138 read -resize ./rainonme.wav rainonme-L rainonme-R;
#X obj 23 36 loadbang;
#X obj 95 90 samplerate~;
#X obj 25 93 t b b;
#X obj 23 65 bng 15 250 50 0 empty empty empty 17 7 0 10 -262144 -1
-1;
#X obj 26 210 s fullSampleSamples;
#X obj 202 13 key;
#X obj 190 46 sel 105;
#X obj 193 92 sig~;
#X obj 232 101 send~ samplerate;
#X obj 92 33 s init;
#X connect 0 0 6 0;
#X connect 1 0 0 0;
#X connect 2 0 5 0;
#X connect 2 0 11 0;
#X connect 3 0 9 0;
#X connect 4 0 1 0;
#X connect 4 1 3 0;
#X connect 5 0 4 0;
#X connect 7 0 8 0;
#X connect 8 0 5 0;
#X connect 9 0 10 0;
#X restore 18 14 pd init;
#N canvas 53 47 450 477 tuning 0;
#X obj 21 198 coll;
#C restore;
#X floatatom 18 240 5 0 0 0 - - -, f 5;
#X msg 15 162 read five-limit;
#X obj 15 126 loadbang;
#X obj 135 16 r key;
#X obj 136 52 unpack 0 0;
#X obj 201 91 > 0;
#X obj 138 112 gate;
#X floatatom 141 160 5 0 0 0 - - -, f 5;
#X obj 20 281 sig~;
#X obj 9 322 send~ voice-clone-frequency;
#X connect 0 0 1 0;
#X connect 1 0 9 0;
#X connect 2 0 0 0;
#X connect 3 0 2 0;
#X connect 4 0 5 0;
#X connect 5 0 7 1;
#X connect 5 1 6 0;
#X connect 6 0 7 0;
#X connect 7 0 8 0;
#X connect 8 0 0 0;
#X connect 9 0 10 0;
#X restore 81 15 pd tuning;
#N canvas 1137 236 450 566 envelope 1;
#X obj 65 40 r key;
#X obj 67 84 unpack 0 0;
#X floatatom 131 122 5 0 0 0 - - -, f 5;
#X obj 132 159 sel 0;
#X obj 129 292 vline~;
#X obj 154 344 send~ envelope;
#X obj 64 377 receive~ amplitude;
#X obj 76 421 *~;
#X obj 69 467 send~ enveloped-amplitude;
#X obj 211 82 receive~ attack;
#X obj 210 119 Snapshot~ 1;
#X obj 209 164 f;
#X msg 210 254 1 \$1;
#X obj 250 164 delay;
#X obj 335 85 receive~ decay;
#X obj 337 117 Snapshot~ 1;
#X obj 449 83 receive~ sustain;
#X obj 448 114 Snapshot~ 1;
#X obj 331 156 pack 0 0;
#X obj 312 254 l;
#X obj 283 246 bng 15 250 50 0 empty empty empty 17 7 0 10 -262144
-1 -1;
#X msg 132 254 0 \$1;
#X obj 584 85 receive~ release;
#X obj 582 120 Snapshot~ 1;
#X obj 135 212 f;
#X obj 164 186 bng 15 250 50 0 empty empty empty 17 7 0 10 -262144
-1 -1;
#X obj 134 187 bng 15 250 50 0 empty empty empty 17 7 0 10 -262144
-1 -1;
#X connect 0 0 1 0;
#X connect 1 1 2 0;
#X connect 2 0 3 0;
#X connect 3 0 26 0;
#X connect 3 1 25 0;
#X connect 4 0 5 0;
#X connect 4 0 7 1;
#X connect 6 0 7 0;
#X connect 7 0 8 0;
#X connect 9 0 10 0;
#X connect 10 0 11 1;
#X connect 10 0 13 1;
#X connect 11 0 12 0;
#X connect 12 0 4 0;
#X connect 13 0 20 0;
#X connect 14 0 15 0;
#X connect 15 0 18 1;
#X connect 16 0 17 0;
#X connect 17 0 18 0;
#X connect 18 0 19 1;
#X connect 19 0 4 0;
#X connect 20 0 19 0;
#X connect 21 0 4 0;
#X connect 22 0 23 0;
#X connect 23 0 24 1;
#X connect 24 0 21 0;
#X connect 25 0 11 0;
#X connect 25 0 13 0;
#X connect 26 0 24 0;
#X restore 79 43 pd envelope;
#N canvas 0 22 450 300 sampleControlMixes 0;
#X obj 34 49 r syncSampleChanges;
#X obj 35 87 sel 0;
#X obj 41 193 vline~;
#X obj 120 193 vline~;
#X obj 41 239 send~ syncSampleControlMix;
#X obj 123 280 send~ drySampleControlMix;
#X msg 31 113 0 \, 1 10;
#X msg 120 111 0 \, 1 10;
#X msg 31 140 1 \, 0 10;
#X msg 120 139 1 \, 0 10;
#X obj 201 41 loadbang;
#X msg 201 73 0;
#X connect 0 0 1 0;
#X connect 1 0 9 0;
#X connect 1 0 6 0;
#X connect 1 1 8 0;
#X connect 1 1 7 0;
#X connect 2 0 4 0;
#X connect 3 0 5 0;
#X connect 6 0 2 0;
#X connect 7 0 3 0;
#X connect 8 0 2 0;
#X connect 9 0 3 0;
#X connect 10 0 11 0;
#X connect 11 0 1 0;
#X restore 110 73 pd sampleControlMixes;
#X obj 236 261 unpack 0 0;
#X floatatom 195 405 5 0 0 0 - - -, f 5;
#X floatatom 305 405 5 0 0 0 - - -, f 5;
#X obj 231 229 r key;
#X msg 195 438 set \$1;
#X text 237 403 voice #;
#X text 350 405 on/off;
#X obj 257 302 swap;
#X msg 305 448 this \$1;
#X obj 192 540 clone clone-voice 24;
#X connect 11 0 18 0;
#X connect 11 1 18 1;
#X connect 12 0 15 0;
#X connect 13 0 19 0;
#X connect 14 0 11 0;
#X connect 15 0 20 0;
#X connect 18 0 13 0;
#X connect 18 1 12 0;
#X connect 19 0 20 0;
#X connect 20 0 2 0;
#X connect 20 1 2 1;
