#N canvas 1163 250 450 531 12;
#X obj 49 327 tabread~ rainonme-L;
#X obj 227 328 tabread~ rainonme-R;
#X obj 47 115 phasor~;
#X obj 44 413 *~;
#X obj 136 411 *~;
#X obj 45 20 receive~ frequency;
#X obj 48 279 +~;
#X obj 43 217 *~;
#X obj 75 147 send~ masterPhasor;
#X obj 76 171 receive~ grainLength;
#X obj 76 208 *~;
#X obj 231 172 receive~ fullSampleSamples;
#X obj 112 265 *~;
#X obj 135 236 receive~ fullSampleSamples;
#X obj 107 209 receive~ startingPosition;
#X obj 46 82 *~;
#X obj 65 362 receive~ enveloped-amplitude;
#X obj 157 69 Snapshot~ 1;
#X floatatom 146 96 5 0 0 0 - - -, f 5;
#X obj 188 22 inlet~;
#X obj 46 456 outlet~;
#X obj 137 459 outlet~;
#X connect 0 0 3 0;
#X connect 1 0 4 0;
#X connect 2 0 7 0;
#X connect 2 0 8 0;
#X connect 3 0 20 0;
#X connect 4 0 21 0;
#X connect 5 0 15 0;
#X connect 5 0 17 0;
#X connect 6 0 0 0;
#X connect 6 0 1 0;
#X connect 7 0 6 0;
#X connect 9 0 10 0;
#X connect 10 0 7 1;
#X connect 11 0 10 1;
#X connect 12 0 6 1;
#X connect 13 0 12 1;
#X connect 14 0 12 0;
#X connect 15 0 2 0;
#X connect 16 0 3 1;
#X connect 16 0 4 1;
#X connect 17 0 18 0;
#X connect 19 0 15 1;
